# xmcd
#
# Track frame offsets:
#	150
#	11355
#	22658
#	32753
#	44633
#	54121
#	65739
#	78519
#	88802
#	99362
#	110162
#	119965
#
# Disc length: 1747 seconds
#
# Revision: 1
# Processed by: cddbd v1.5.2PL0 Copyright (c) Steve Scherf et al.
# Submitted via: audiograbber 1.83.01
#
DISCID=9b06d10c
DTITLE=Marty Robbins - Marty's Greatest Hits
DYEAR=1959
DGENRE=Country
TTITLE0=A White Sport Coat
TTITLE1=The Story Of My Life
TTITLE2=Ain't I The Lucky One
TTITLE3=The Last Time I Saw My Heart
TTITLE4=Long Tall Sally
TTITLE5=The Blues Country Style
TTITLE6=The Hanging Tree
TTITLE7=Sittin' In A Tree House
TTITLE8=She Was Only Seventeen
TTITLE9=Singing The Blues
TTITLE10=Knee Deep In The Blues
TTITLE11=Aloha Oe
EXTD=
EXTT0=
EXTT1=
EXTT2=
EXTT3=
EXTT4=
EXTT5=
EXTT6=
EXTT7=
EXTT8=
EXTT9=
EXTT10=
EXTT11=
PLAYORDER=
